<?xml version="1.0" standalone="no"?><!-- Generator: Gravit.io --><svg xmlns="http://www.w3.org/2000/svg" xmlns:xlink="http://www.w3.org/1999/xlink" style="isolation:isolate" viewBox="5.809 0 407.152 297.36" width="407.152" height="297.36"><g><g transform="matrix(1.571,-0.421,0.421,1.571,95.015,40.176)"><text transform="matrix(1,0,0,1,2.344,42.914)" style="font-family:&quot;Montez&quot;;font-weight:400;font-size:48px;font-style:normal;fill:#ebebeb;stroke:none;">Jane</text></g><g transform="matrix(1.571,-0.421,0.421,1.571,102.239,207.3)"><text transform="matrix(1,0,0,1,2.344,42.914)" style="font-family:&quot;Montez&quot;;font-weight:400;font-size:48px;font-style:normal;fill:#ebebeb;stroke:none;">Richard</text></g><g><g><path d=" M 53.095 233.597 C 49.252 223.633 46.539 213.268 45.007 202.698 C 11.649 208.587 8.138 220.008 7.799 222.92 L 16.826 236.849 C 17.346 237.485 17.641 238.276 17.667 239.098 C 15.111 249.726 17.262 260.371 18.945 266.195 C 26.484 255.421 41.949 252.25 54.179 249.726 C 62.495 248.011 69.273 246.62 70.826 243.579 C 70.817 243.52 70.817 243.46 70.826 243.401 L 71.117 242.43 C 71.141 242.188 71.141 241.944 71.117 241.702 C 70.13 234.293 56.185 236.364 55.668 236.444 L 55.668 236.444 C 55.598 236.46 55.527 236.46 55.457 236.444 C 55.135 236.327 54.842 236.139 54.6 235.894 L 54.39 235.668 C 54.175 235.433 53.975 235.184 53.791 234.924 C 53.71 234.778 53.613 234.649 53.548 234.519 C 53.37 234.226 53.218 233.918 53.095 233.597 Z " fill-rule="evenodd" fill="rgb(235,235,235)" vector-effect="non-scaling-stroke" stroke-width="0.995" stroke="rgb(235,235,235)" stroke-linejoin="miter" stroke-linecap="butt" stroke-miterlimit="4"/><path d=" M 75.469 222.289 C 71.78 224.764 68.189 227.337 64.727 230.006 C 68.674 230.556 73.204 232.141 75.857 236.234 C 76.612 231.603 76.48 226.871 75.469 222.289 Z " fill-rule="evenodd" fill="rgb(235,235,235)" vector-effect="non-scaling-stroke" stroke-width="0.995" stroke="rgb(235,235,235)" stroke-linejoin="miter" stroke-linecap="butt" stroke-miterlimit="4"/><path d=" M 331.154 48.203 L 331.154 48.203 C 328.968 46.256 326.183 45.114 323.259 44.968 C 324.877 44.159 326.818 43.35 328.905 42.59 L 328.905 42.59 C 334.403 40.597 340.106 39.224 345.908 38.497 C 361.891 36.426 369.058 30.91 372.164 27.173 L 374.639 50.08 C 374.682 50.387 374.769 50.687 374.898 50.97 C 374.898 50.97 378.586 59.819 390.994 72.114 C 388.373 74.362 380.317 79.814 362.247 81.464 C 357.983 81.739 353.803 82.775 349.903 84.522 C 348.075 85.404 346.336 86.461 344.711 87.676 C 342.624 63.41 332.804 50.161 331.688 48.737 L 331.688 48.737 L 331.154 48.203 Z " fill-rule="evenodd" fill="rgb(235,235,235)" vector-effect="non-scaling-stroke" stroke-width="0.995" stroke="rgb(235,235,235)" stroke-linejoin="miter" stroke-linecap="butt" stroke-miterlimit="4"/><path d=" M 311.935 78.116 C 283.252 97.529 222.797 112.444 170.706 125.273 C 137.817 133.362 108.277 140.625 92.261 147.646 C 75.016 155.217 61.443 162.74 54.81 175.407 C 48.55 187.346 48.453 203.912 57.221 229.569 C 62.357 225.364 67.72 221.443 73.285 217.824 L 73.382 217.824 C 119.536 187.621 182.596 172.883 235.416 160.54 C 289.109 148.002 332.189 137.891 335.959 116.861 C 337.452 108.681 338.141 100.374 338.013 92.061 C 337.926 91.804 337.926 91.525 338.013 91.268 C 337.447 72.049 331.849 60.11 328.776 54.966 C 328.679 63.265 322.612 70.852 312.436 77.857 C 312.424 77.969 312.355 78.068 312.255 78.12 C 312.154 78.172 312.034 78.17 311.935 78.116 Z " fill-rule="evenodd" fill="rgb(235,235,235)" vector-effect="non-scaling-stroke" stroke-width="0.995" stroke="rgb(235,235,235)" stroke-linejoin="miter" stroke-linecap="butt" stroke-miterlimit="4"/><path d=" M 305.982 54.124 C 308.559 59.727 310.062 65.763 310.414 71.92 C 319.005 65.449 323.955 58.622 323.809 51.196 C 321.383 49.918 315.737 48.462 305.982 54.124 Z " fill-rule="evenodd" fill="rgb(235,235,235)" vector-effect="non-scaling-stroke" stroke-width="0.995" stroke="rgb(235,235,235)" stroke-linejoin="miter" stroke-linecap="butt" stroke-miterlimit="4"/></g></g><g transform="matrix(1.571,-0.421,0.421,1.571,89.159,137.863)"><text transform="matrix(1,0,0,1,12.335,26.141)" style="font-family:&quot;Montez&quot;;font-weight:400;font-size:30px;font-style:normal;fill:#1c456d;stroke:none;">get hitched</text></g><g><path d=" M 381.198 99.385 C 381.053 99.822 380.391 99.491 379.729 98.657 C 379.13 98.043 378.789 97.223 378.775 96.366 C 382.96 84.01 397.527 85.758 405.565 93.307 C 426.753 113.29 390.018 129.803 372.035 133.339 C 362.169 135.273 352.939 138.808 346.172 144.37 C 338.968 150.008 334.869 158.732 335.127 167.876 C 338.094 187.197 375.623 187.197 378.828 162.473 C 378.983 159.094 378.055 155.754 376.18 152.938 C 367.386 141.311 351.84 153.574 353.217 168.618 C 353.336 169.333 352.872 169.412 352.197 168.803 C 351.501 168.157 351.005 167.325 350.767 166.406 C 347.668 146.714 364.685 134.716 377.001 151.839 C 379.816 155.678 381.32 160.321 381.291 165.082 C 381.167 169.583 379.826 173.967 377.411 177.768 C 365.572 197.354 332.889 189.647 332.638 165.28 C 332.348 155.883 336.535 146.905 343.92 141.086 C 362.778 125.579 395.938 133.922 405.552 106.655 C 411.604 89.466 386.217 84.54 381.198 99.385 Z " fill-rule="evenodd" fill="rgb(235,235,235)" vector-effect="non-scaling-stroke" stroke-width="0.5" stroke="rgb(235,235,235)" stroke-linejoin="miter" stroke-linecap="butt" stroke-miterlimit="4"/></g><g><path d=" M 98.905 78.611 C 98.905 77.876 99.559 77.972 100.389 78.834 C 101.209 79.608 101.767 80.618 101.986 81.724 C 102.353 106.737 84.012 140.786 54.847 126.978 C 47.127 123.056 42.22 115.173 42.109 106.514 C 41.726 91.126 56.332 73.407 70.842 86.097 C 74.356 88.969 76.64 93.075 77.227 97.575 C 77.658 102.044 75.487 106.801 69.246 110.345 C 68.304 110.872 65.686 106.865 66.612 106.322 C 72.518 102.97 74.593 98.66 74.21 94.685 C 74.023 92.601 73.039 90.669 71.465 89.29 C 59.093 82.697 44.95 97.686 45.11 109.627 C 45.27 115.804 47.361 120.322 53.091 123.052 C 81.521 136.508 99.208 102.651 98.905 78.611 Z " fill-rule="evenodd" fill="rgb(235,235,235)" vector-effect="non-scaling-stroke" stroke-width="0.5" stroke="rgb(235,235,235)" stroke-linejoin="miter" stroke-linecap="butt" stroke-miterlimit="4"/></g></g></svg>