<?xml version="1.0" standalone="no"?>
<!DOCTYPE svg PUBLIC "-//W3C//DTD SVG 20010904//EN"
 "http://www.w3.org/TR/2001/REC-SVG-20010904/DTD/svg10.dtd">
<svg version="1.0" xmlns="http://www.w3.org/2000/svg"
 width="512.000000pt" height="512.000000pt" viewBox="0 0 512.000000 512.000000"
 preserveAspectRatio="xMidYMid meet">
<metadata>
Created by potrace 1.11, written by Peter Selinger 2001-2013
</metadata>
<g transform="translate(0.000000,512.000000) scale(0.100000,-0.100000)"
fill="#000000" stroke="none">
<path d="M2196 4868 c-193 -25 -326 -178 -326 -374 0 -183 82 -295 377 -515
76 -57 177 -142 226 -190 l88 -87 82 82 c45 44 136 121 202 170 267 199 342
279 385 406 88 262 -87 511 -358 511 -77 0 -116 -10 -176 -45 -42 -24 -118
-99 -129 -127 -5 -11 -8 -10 -18 6 -23 39 -106 112 -151 134 -60 29 -128 39
-202 29z"/>
<path d="M1527 3404 c-1 -1 -38 -4 -82 -8 -99 -8 -171 -19 -255 -41 -36 -10
-69 -18 -75 -20 -5 -1 -23 -7 -40 -14 -16 -7 -50 -20 -75 -28 -63 -21 -203
-94 -288 -150 -133 -88 -289 -232 -379 -351 -10 -13 -27 -36 -39 -50 -115
-148 -244 -458 -268 -644 -4 -26 -10 -68 -15 -93 -8 -44 -7 -341 2 -380 2 -11
8 -42 12 -70 25 -175 122 -422 233 -590 74 -113 100 -144 217 -260 197 -196
414 -323 682 -399 48 -14 104 -27 123 -30 19 -2 51 -7 70 -10 89 -17 309 -22
400 -10 91 12 247 46 320 70 156 52 345 151 452 236 l38 30 38 -30 c173 -137
434 -249 677 -291 119 -20 312 -28 415 -17 304 32 584 144 815 324 102 80 251
235 322 335 105 149 220 400 248 542 31 156 37 209 40 335 10 480 -180 911
-545 1230 -216 189 -516 328 -790 365 -14 2 -45 6 -70 10 -57 9 -259 9 -325 1
-99 -13 -181 -27 -235 -42 -108 -29 -135 -38 -145 -46 -5 -4 -15 -8 -22 -8
-41 0 -293 -137 -380 -208 l-42 -34 -43 35 c-125 101 -340 204 -538 258 -63
17 -61 17 -105 24 -22 3 -51 8 -65 11 -53 10 -275 24 -283 18z m296 -358 c158
-35 297 -91 434 -178 l63 -40 -35 -47 c-117 -153 -218 -362 -268 -551 -101
-384 -55 -791 129 -1139 40 -76 117 -198 133 -211 4 -3 14 -16 23 -31 16 -25
15 -26 -21 -49 -20 -12 -48 -31 -62 -40 -67 -46 -228 -114 -329 -139 -142 -36
-362 -47 -500 -26 -393 60 -752 325 -927 685 -71 146 -106 269 -121 428 -58
607 333 1164 928 1322 55 15 73 18 130 26 25 3 47 8 49 9 11 11 306 -4 374
-19z m1962 0 c312 -68 582 -241 762 -491 182 -251 261 -547 230 -860 -7 -75
-8 -77 -31 -175 -108 -452 -509 -832 -966 -916 -118 -21 -342 -27 -416 -10
-12 2 -39 7 -60 10 -151 24 -349 111 -496 217 -4 3 14 34 40 70 171 229 271
490 301 789 8 79 7 284 -2 335 -3 17 -8 50 -12 75 -34 224 -153 498 -303 694
l-30 40 25 19 c104 83 331 180 473 203 19 3 51 9 70 13 63 14 329 5 415 -13z
m-1173 -527 c215 -311 270 -742 141 -1103 -47 -132 -167 -346 -193 -346 -13 0
-84 107 -126 190 -87 174 -122 310 -137 530 -8 108 25 318 68 440 54 156 170
357 198 347 6 -2 28 -28 49 -58z"/>
</g>
</svg>
